<svg xmlns="http://www.w3.org/2000/svg" viewBox="0 0 512 512"><g fill="#c70101"><circle cx="256" cy="256" r="236.17"/><path d="M256 512C114.853 512 0 397.167 0 256 0 114.853 114.853 0 256 0c141.167 0 256 114.853 256 256 0 141.167-114.833 256-256 256zm0-472.341C136.705 39.659 39.659 136.705 39.659 256S136.705 472.341 256 472.341 472.341 375.275 472.341 256c0-119.295-97.046-216.341-216.341-216.341z"/></g><path d="M369.227 311.126c-7.734 7.694-20.226 7.694-27.96 0l-85.069-85.069-85.069 85.069c-8.309 7.119-20.841 6.147-27.96-2.161-6.365-7.416-6.365-18.382 0-25.798l99.148-99.148c7.734-7.694 20.226-7.694 27.96 0l99.148 99.148c7.635 7.793 7.555 20.285-.198 27.959z" fill="#fff"/></svg>